<?xml version="1.0" encoding="utf-8"?>
<!-- Generator: Adobe Illustrator 21.0.0, SVG Export Plug-In . SVG Version: 6.00 Build 0)  -->
<svg version="1.1" id="Layer_1" xmlns="http://www.w3.org/2000/svg" xmlns:xlink="http://www.w3.org/1999/xlink" x="0px" y="0px"
	 viewBox="0 0 432 159.8" style="enable-background:new 0 0 432 159.8;" xml:space="preserve">
<style type="text/css">
	.st0{fill:#002B5C;}
</style>
<g>
	<g>
		<g>
			<path class="st0" d="M21.9,112.9c-8.6,0-13.8-6.7-13.8-14.5c0-8.4,5.5-15.1,13.8-15.1c3.4,0,6.9,1.5,9,4.2l4.2-3.2
				c-3-3.9-8.1-5.8-13-5.8c-11.4,0-19.3,8.3-19.3,19.8c0,9.3,7.3,19.2,19.1,19.2c8.5,0,12.9-5,14-6.5l-4.2-3.2
				C29.4,111,26.2,112.9,21.9,112.9z"/>
			<polygon class="st0" points="69.6,116.6 74.6,116.6 74.6,79.5 69.6,79.5 69.6,94.9 50.3,94.9 50.3,79.5 45.3,79.5 45.3,116.6 
				50.3,116.6 50.3,99.7 69.6,99.7 			"/>
			<path class="st0" d="M99.1,79.5l-16.4,37.1h5.9l3.7-9.2H110l3.7,9.2h5.9l-15.9-37.1H99.1z M94.1,103.1l7-17h0.1l6.9,17H94.1z"/>
			<path class="st0" d="M152.7,89.9c0-4.7-2.4-10.4-11.9-10.4h-13v37.1h5v-16.3h5.6l9.4,16.3h6.3l-10.5-16.9
				C149.2,99.1,152.7,94.6,152.7,89.9z M132.8,95.9V83.9h6.6c4,0,8,0.9,8,6c0,5-4,6-8,6H132.8z"/>
			<polygon class="st0" points="168.2,79.5 163.1,79.5 163.1,116.6 185.2,116.6 185.2,111.9 168.2,111.9 			"/>
			<polygon class="st0" points="217.6,84.3 217.6,79.5 193.7,79.5 193.7,116.6 218.6,116.6 218.6,111.9 198.7,111.9 198.7,100 
				216.3,100 216.3,95.3 198.7,95.3 198.7,84.3 			"/>
			<path class="st0" d="M232.5,89c0-2.3,1.7-5.7,7.2-5.7c2.9,0,5.3,1.3,6.6,3.2l4.1-3.7c-2.8-3.4-6.7-4.2-10.7-4.2
				c-8.9,0-12.6,6-12.6,10.4c0,14.5,18.3,9.2,18.3,17.7c0,4.1-4.1,6.2-7.4,6.2c-3,0-6.1-1.3-7.9-4l-4.1,3.6
				c2.5,3.5,7.1,5.1,11.8,5.1c7.1,0,12.9-4.3,12.9-11.5C250.8,92.7,232.5,98.4,232.5,89z"/>
			<path class="st0" d="M295.3,99.7c5.6-0.6,9.1-5.1,9.1-9.8c0-4.7-2.4-10.4-11.9-10.4h-13v37.1h5v-16.3h5.6l9.4,16.3h6.3
				L295.3,99.7z M284.5,95.9V83.9h6.6c4,0,8,0.9,8,6c0,5-4,6-8,6H284.5z"/>
			<rect x="314.9" y="79.5" class="st0" width="5" height="37.1"/>
			<polygon class="st0" points="355.8,79.5 344.5,109.7 344.4,109.7 333.5,79.5 327.7,79.5 342,116.6 346.7,116.6 361.3,79.5 			"/>
			<polygon class="st0" points="374.2,100 391.8,100 391.8,95.3 374.2,95.3 374.2,84.3 393.1,84.3 393.1,79.5 369.1,79.5 
				369.1,116.6 394,116.6 394,111.9 374.2,111.9 			"/>
			<path class="st0" d="M429.5,89.9c0-4.7-2.4-10.4-11.9-10.4h-13v37.1h5v-16.3h5.6l9.4,16.3h6.3l-10.5-16.9
				C426,99.1,429.5,94.6,429.5,89.9z M409.6,95.9V83.9h6.6c4,0,8,0.9,8,6c0,5-4,6-8,6H409.6z"/>
		</g>
		<g>
			<path class="st0" d="M78.3,131.5L66,159.3h4.4l2.8-6.9h13.2l2.8,6.9h4.4l-11.9-27.8H78.3z M74.5,149.1l5.3-12.8h0.1l5.2,12.8
				H74.5z"/>
			<path class="st0" d="M129.4,131.5h-9.8v27.8h3.8V147h6c7.1,0,8.9-4.3,8.9-7.8C138.3,135.8,136.5,131.5,129.4,131.5z M128.4,143.7
				h-5v-9h5c3,0,6,0.7,6,4.5C134.3,143,131.3,143.7,128.4,143.7z"/>
			<path class="st0" d="M175.1,131.5h-9.8v27.8h3.8V147h6c7.1,0,8.9-4.3,8.9-7.8C184.1,135.8,182.2,131.5,175.1,131.5z M174.1,143.7
				h-4.9v-9h4.9c3,0,6,0.7,6,4.5C180,143,177.1,143.7,174.1,143.7z"/>
			<path class="st0" d="M216.9,131.5l-12.3,27.8h4.4l2.7-6.9H225l2.8,6.9h4.4l-11.9-27.8H216.9z M213.1,149.1l5.3-12.8h0.1l5.2,12.8
				H213.1z"/>
			<path class="st0" d="M276.9,139.3c0-3.5-1.8-7.8-8.9-7.8h-9.8v27.8h3.8V147h4.2l7.1,12.3h4.7l-7.9-12.7
				C274.3,146.1,276.9,142.8,276.9,139.3z M262,143.7v-9h5c3,0,6,0.7,6,4.5c0,3.8-3,4.5-6,4.5H262z"/>
			<polygon class="st0" points="308.4,146.8 321.6,146.8 321.6,143.3 308.4,143.3 308.4,135 322.6,135 322.6,131.5 304.6,131.5 
				304.6,159.3 323.3,159.3 323.3,155.8 308.4,155.8 			"/>
			<polygon class="st0" points="354.8,131.5 351.1,131.5 351.1,159.3 367.6,159.3 367.6,155.8 354.8,155.8 			"/>
		</g>
		<path class="st0" d="M248.6,53.9L248.6,53.9L248.6,53.9c-0.2,0-0.4,0-0.6,0l0,0h-2.6l-1.5,0l-0.7,0H234c-0.2-0.3-0.4-0.7-0.6-1
			l-3.2-6.2l-1-2.2c0,0,0,0,0,0l7.8,0.1c0.1,0,0.2,0.1,0.3,0.1l1.2,0.4h0l0,0l0.1,0c0.1,0,0.3,0.1,0.5,0.1l2.3,0.3
			c0,0,0.1,0,0.1,0.1l1.3,0.6c0,0,0.1,0.1,0.3,0.1l4.7,0c0,0,0.1,0,0.2,0l1-0.3c0,0,0.1,0,0.1-0.1l1.3-0.7c0,0,0,0,0.1-0.1l0.2-0.3
			l7.4,0.1l1.2,0l0,0l0,0l0,0l0,0c0.8-0.1,1.6-0.6,1.6-1.3c0-0.7-0.7-1.3-1.7-1.3c-0.7,0-2.6-0.1-2.6-0.1l-1.7,0c0-0.1,0-0.2,0-0.2
			c0-0.7-0.5-1.3-1.3-1.3c0,0-0.1,0-0.1,0l-1.7,0l-2.3-0.1c-0.2,0-0.3,0-0.5-0.1l-4.6-1.8c-6.2-5.6-10.5-7.4-10.5-7.4
			c-1.5-0.6-3.1-1.5-3.1-1.5c-4.1-2.8-9-4.4-9-4.4c-2.7-3.1-5.5-3.7-6.5-3.9l-1.1-0.9c0.1-0.2,0.3-0.3,0.4-0.4
			c0.3-0.3,0.8-0.5,1.1-0.5l2.1,0.1l1.6,0.1c0,0,0.1,0,0.1,0c0.1,0,0.3,0,0.4-0.1c0.7-0.5,0.8-0.9,0.5-1.7c-0.1-0.3-0.1-0.6,0-0.9
			c0,0,0.2-0.2,0.3-0.4c0,0,0-0.1-0.1-0.4c0-0.1-0.1-0.1-0.1-0.1c0.3-0.1,0.3-0.3,0.3-0.4c0-0.1,0-0.1,0-0.1c0,0-0.1-0.2-0.1-0.2
			c-0.1-0.8-0.1-0.8,0.6-1.1c0.5-0.3,0.6-0.4,0.3-0.9c-0.3-0.6-0.7-1.2-1.1-1.9c-0.1-0.2-0.2-0.4-0.2-0.6c0.1-0.4,0.1-0.7,0.1-1
			c0,0-0.2-1.5-0.7-3.1c0.2-0.1,0.6-0.6,0.5-1.2c0.1-0.1,0.2-0.3,0.1-0.5c-0.1-0.1,0-0.4,0.1-0.5c0.2,0,0.3,0.1,0.3,0.1
			c0.2-0.3,0.1-0.6,0.1-0.6s-0.3-0.6-1.2-0.9c0,0-1.1-0.5-1.6-1c0,0-0.6-0.4-1.7-0.6c0,0-0.2,0.1-0.4,0.1c0,0-0.1-0.1-0.2-0.2
			c0,0-0.4-0.3-0.8-0.3c0,0-0.4-0.1-0.7-0.4c0,0-0.4-0.3-1.1-0.2c0,0-0.5,0.1-0.9,0l-1,0.4c0,0-0.4,0.1-0.5-0.1l-0.3,0.3l-1.1,0.2
			c0,0-0.9,0-1.2,1.2c0,0-1.8,0-3,4.4c0,0-0.4,1.8,0.2,3.1l0.3,2.3l0.2,0.4c0,0,0,0.6,0.3,0.8l0,0V14c0,0,0,0.1,0,0.1
			c-0.4,0.8-0.8,1.2-0.8,1.2c-13.4,5.3-16.5,18.1-17.1,21.9c0,0,0,0,0,0c0,0.1,0,0.2-0.1,0.3L136.4,35c0,0-1.9,0.3-4.6-0.6
			c-2.7-0.8-11.8-3.4-18.4-4.3c0,0-2-0.3-3.5-0.4v0c-0.6,0-0.7,0.4-0.7,0.4c-0.3,1.1-1.2,4-1.9,6.8c-2.5-0.5-5-0.8-7.3-1.1
			c0,0-2.1-0.3-3.7-0.3c-0.7,0-0.9,0.6-0.9,0.6c-0.7,2.5-3.2,12.1-2.4,13c0.9,1,2.4,1.3,7.3,1.7c4.9,0.4,15.9-0.1,15.9-0.1
			s1.1-3.6,3.5-5.9c0.2-0.1,0.5-0.3,1.1-0.3c3.8,0.1,7.3,0,7.3,0s0.2-0.6,0.6-1.4l59.1,0.8c0.2,7.9,4.3,10.5,4.3,10.5s0,0,0,0
			C119.6,54.9,69.6,53.7,66.2,52l8.5,10c0.3,0.3,1.5,1.5,4.7,2.1c0,0,3,0.3,5.9-0.2c0.2,0,0.3-0.1,0.5-0.1c0,0,0,0,0.1,0l0,0
			c3.7-0.6,6.5-0.2,10.3-0.5c6-0.6,5.5,1.2,11.1,0.8c5.6-0.5,9.2,2.5,14.8,2.2c9.6-0.6,11.7-2.2,16.7-2.5c4.9-0.3,4.7-0.8,9.3-1.1
			c4.6-0.3,5.3,1.8,11.3,1.4c6-0.3,5.5,1.9,14.9,0c9.3-1.8,9.3,2.2,16.3,1.6c7-0.6,7.6,1,12.1,0.6c4.5-0.4,3.8-0.3,8.8-0.4
			c4.8-0.1,3.2-0.4,7.4-1c3.7-0.5,6.5,2.2,11.3,0.7c4.8-1.5,17.5,1.8,23.9-0.9c6.4-2.7,6.4,0.3,11-0.9c4.6-1.2,6.6,2.7,12.8,1.9
			c5.6-0.7,9.3,0.3,18.6-0.9c3.6-0.5,5.4-1.8,9.3-1.2c2.9,0.5,5,2.3,11.6,1.2c9.4-1.7,8.1,1.3,19.9-0.9c6.5-1.2,11,2.8,16.1-0.3
			c1.9-1.2,14.1-12.6,14.1-12.6C325.9,52.4,285.6,53.4,248.6,53.9z M205.4,37c0-0.3,0.1-0.6,0.2-0.8c1.1-1.5,2.8-2.3,3.6-4
			c1.4,0.7,1.9,0.7,3.5,0.9c-0.1,0.1-0.2,0.4-0.5,0.5c-2,1.2-4.1,2.7-6.2,3.8C205.6,37.7,205.4,37.4,205.4,37z M205,23.9
			c0,0-1.2-5.2,4-4.4c0,0,2.6,0.3,4.1,3.6c0,0,3.6,0,6.9,3.9c0,0,3.3,0.4,7.3,3.2c0,0,3.7,2.3,5.6,2.9c0,0,3.8,2,6.9,4.3
			c0,0-9.9-4.8-13.9-4.9l0,0c-5-3.9-11.6-3.4-11.6-3.4s-2.7-2.4-6.5-2.2c0,0-3.9-2.2-9.3,1.4C199.8,24.4,202.3,23.7,205,23.9z
			 M133.9,37.7l36.9,1.5c1,0.9,0,1.8,0,1.8l-40.5-0.6C131.3,39.2,132.5,38.1,133.9,37.7z M212.9,54.3L212.9,54.3l-2.7,0
			c0,0,6.2-4.8,8.3-8.8c0,0,0.6,2.7,3.5,4.4c0,0,1,0.6,2.7,4.2C224.8,54.2,218,54.3,212.9,54.3z"/>
	</g>
	<g>
		<path class="st0" d="M367.8,135.5c0-0.6,0.1-1.1,0.3-1.6c0.2-0.5,0.5-0.9,0.9-1.3c0.4-0.4,0.8-0.7,1.3-0.9c0.5-0.2,1-0.3,1.6-0.3
			c0.6,0,1.1,0.1,1.6,0.3c0.5,0.2,0.9,0.5,1.3,0.9c0.4,0.4,0.7,0.8,0.9,1.3c0.2,0.5,0.3,1,0.3,1.6c0,0.6-0.1,1.1-0.3,1.6
			c-0.2,0.5-0.5,0.9-0.9,1.3c-0.4,0.4-0.8,0.6-1.3,0.9c-0.5,0.2-1,0.3-1.6,0.3c-0.6,0-1.1-0.1-1.6-0.3c-0.5-0.2-0.9-0.5-1.3-0.9
			c-0.4-0.4-0.7-0.8-0.9-1.3C367.9,136.6,367.8,136.1,367.8,135.5z M368.4,135.5c0,0.5,0.1,0.9,0.3,1.3c0.2,0.4,0.4,0.8,0.7,1.1
			c0.3,0.3,0.7,0.6,1.1,0.7c0.4,0.2,0.9,0.3,1.3,0.3c0.5,0,0.9-0.1,1.3-0.3c0.4-0.2,0.8-0.4,1.1-0.7c0.3-0.3,0.6-0.7,0.7-1.1
			c0.2-0.4,0.3-0.9,0.3-1.3c0-0.5-0.1-0.9-0.3-1.3c-0.2-0.4-0.4-0.8-0.7-1.1c-0.3-0.3-0.7-0.6-1.1-0.7c-0.4-0.2-0.9-0.3-1.3-0.3
			c-0.5,0-0.9,0.1-1.3,0.3c-0.4,0.2-0.8,0.4-1.1,0.7c-0.3,0.3-0.6,0.7-0.7,1.1C368.5,134.6,368.4,135,368.4,135.5z M370.2,133.2h1.6
			c0.2,0,0.4,0,0.6,0.1c0.2,0,0.4,0.1,0.5,0.2c0.2,0.1,0.3,0.2,0.4,0.4c0.1,0.2,0.1,0.4,0.1,0.6c0,0.3-0.1,0.6-0.3,0.8
			c-0.2,0.2-0.4,0.3-0.8,0.4l1.2,2h-1l-1.1-1.9h-0.6v1.9h-0.8V133.2z M371.7,135.2c0.2,0,0.5,0,0.7-0.1s0.3-0.3,0.3-0.5
			c0-0.3-0.1-0.4-0.3-0.5c-0.2-0.1-0.4-0.1-0.6-0.1h-0.7v1.3H371.7z"/>
	</g>
</g>
</svg>
